<mxfile host="Electron" agent="Mozilla/5.0 (Windows NT 10.0; Win64; x64) AppleWebKit/537.36 (KHTML, like Gecko) draw.io/28.1.2 Chrome/138.0.7204.243 Electron/37.4.0 Safari/537.36" version="28.1.2">
  <diagram name="Page-1" id="n2QJ4CPygrfTML7OndHj">
    <mxGraphModel dx="3427" dy="3137" grid="1" gridSize="1" guides="1" tooltips="1" connect="1" arrows="1" fold="1" page="1" pageScale="1" pageWidth="850" pageHeight="1100" math="0" shadow="0">
      <root>
        <mxCell id="0" />
        <mxCell id="1" parent="0" />
        <mxCell id="n9VC2W5md-jH-f9bKy73-1" value="" style="rounded=0;whiteSpace=wrap;html=1;strokeWidth=3;fontSize=20;container=0;fontStyle=1" parent="1" vertex="1">
          <mxGeometry x="723" y="60" width="173" height="192" as="geometry" />
        </mxCell>
        <mxCell id="n9VC2W5md-jH-f9bKy73-2" value="D" style="text;html=1;align=center;verticalAlign=middle;resizable=0;points=[];autosize=1;strokeColor=none;fillColor=none;strokeWidth=3;fontSize=20;container=0;fontStyle=1" parent="1" vertex="1">
          <mxGeometry x="728" y="76" width="40" height="40" as="geometry" />
        </mxCell>
        <mxCell id="n9VC2W5md-jH-f9bKy73-3" value="CLK" style="text;html=1;align=center;verticalAlign=middle;resizable=0;points=[];autosize=1;strokeColor=none;fillColor=none;strokeWidth=3;fontSize=20;container=0;fontStyle=1" parent="1" vertex="1">
          <mxGeometry x="737" y="192" width="60" height="40" as="geometry" />
        </mxCell>
        <mxCell id="n9VC2W5md-jH-f9bKy73-4" value="Q" style="text;html=1;align=center;verticalAlign=middle;resizable=0;points=[];autosize=1;strokeColor=none;fillColor=none;strokeWidth=3;fontSize=20;container=0;fontStyle=1" parent="1" vertex="1">
          <mxGeometry x="851" y="76" width="40" height="40" as="geometry" />
        </mxCell>
        <mxCell id="n9VC2W5md-jH-f9bKy73-5" value="" style="triangle;whiteSpace=wrap;html=1;strokeWidth=3;fillColor=#33001A;strokeColor=#33001A;fontColor=#ffffff;" parent="1" vertex="1">
          <mxGeometry x="723" y="201" width="19" height="22" as="geometry" />
        </mxCell>
        <mxCell id="n9VC2W5md-jH-f9bKy73-6" value="" style="ellipse;whiteSpace=wrap;html=1;aspect=fixed;strokeWidth=3;" parent="1" vertex="1">
          <mxGeometry x="711" y="206.5" width="11" height="11" as="geometry" />
        </mxCell>
        <mxCell id="n9VC2W5md-jH-f9bKy73-7" value="" style="rounded=0;whiteSpace=wrap;html=1;strokeWidth=3;fontSize=20;container=0;fontStyle=1" parent="1" vertex="1">
          <mxGeometry x="1123" y="60" width="173" height="192" as="geometry" />
        </mxCell>
        <mxCell id="n9VC2W5md-jH-f9bKy73-8" value="D" style="text;html=1;align=center;verticalAlign=middle;resizable=0;points=[];autosize=1;strokeColor=none;fillColor=none;strokeWidth=3;fontSize=20;container=0;fontStyle=1" parent="1" vertex="1">
          <mxGeometry x="1128" y="76" width="40" height="40" as="geometry" />
        </mxCell>
        <mxCell id="n9VC2W5md-jH-f9bKy73-9" value="CLK" style="text;html=1;align=center;verticalAlign=middle;resizable=0;points=[];autosize=1;strokeColor=none;fillColor=none;strokeWidth=3;fontSize=20;container=0;fontStyle=1" parent="1" vertex="1">
          <mxGeometry x="1137" y="192" width="60" height="40" as="geometry" />
        </mxCell>
        <mxCell id="n9VC2W5md-jH-f9bKy73-10" value="Q" style="text;html=1;align=center;verticalAlign=middle;resizable=0;points=[];autosize=1;strokeColor=none;fillColor=none;strokeWidth=3;fontSize=20;container=0;fontStyle=1" parent="1" vertex="1">
          <mxGeometry x="1251" y="76" width="40" height="40" as="geometry" />
        </mxCell>
        <mxCell id="n9VC2W5md-jH-f9bKy73-11" value="" style="triangle;whiteSpace=wrap;html=1;strokeWidth=3;fillColor=#33001A;strokeColor=#33001A;fontColor=#ffffff;" parent="1" vertex="1">
          <mxGeometry x="1123" y="201" width="19" height="22" as="geometry" />
        </mxCell>
        <mxCell id="n9VC2W5md-jH-f9bKy73-13" value="" style="ellipse;whiteSpace=wrap;html=1;aspect=fixed;strokeWidth=3;" parent="1" vertex="1">
          <mxGeometry x="1111" y="206.5" width="11" height="11" as="geometry" />
        </mxCell>
        <mxCell id="n9VC2W5md-jH-f9bKy73-14" style="rounded=0;orthogonalLoop=1;jettySize=auto;html=1;exitX=1;exitY=0.5;exitDx=0;exitDy=0;endArrow=none;endFill=0;strokeWidth=3;entryX=0;entryY=0.5;entryDx=0;entryDy=0;" parent="1" target="n9VC2W5md-jH-f9bKy73-6" edge="1">
          <mxGeometry relative="1" as="geometry">
            <mxPoint x="709" y="212" as="targetPoint" />
            <mxPoint x="560.0000000000005" y="212.5" as="sourcePoint" />
          </mxGeometry>
        </mxCell>
        <mxCell id="n9VC2W5md-jH-f9bKy73-16" style="rounded=0;orthogonalLoop=1;jettySize=auto;html=1;exitX=1;exitY=0.5;exitDx=0;exitDy=0;endArrow=none;endFill=0;strokeWidth=3;entryX=0.005;entryY=0.17;entryDx=0;entryDy=0;entryPerimeter=0;" parent="1" source="n9VC2W5md-jH-f9bKy73-17" target="n9VC2W5md-jH-f9bKy73-1" edge="1">
          <mxGeometry relative="1" as="geometry">
            <mxPoint x="721" y="92.68965517241372" as="targetPoint" />
          </mxGeometry>
        </mxCell>
        <mxCell id="n9VC2W5md-jH-f9bKy73-17" value="d" style="rounded=0;whiteSpace=wrap;html=1;strokeColor=none;fontSize=20;" parent="1" vertex="1">
          <mxGeometry x="491" y="75" width="67" height="35" as="geometry" />
        </mxCell>
        <mxCell id="n9VC2W5md-jH-f9bKy73-18" style="rounded=0;orthogonalLoop=1;jettySize=auto;html=1;endArrow=none;endFill=0;strokeWidth=3;" parent="1" edge="1">
          <mxGeometry relative="1" as="geometry">
            <mxPoint x="896" y="96" as="sourcePoint" />
            <mxPoint x="1123" y="96" as="targetPoint" />
          </mxGeometry>
        </mxCell>
        <mxCell id="n9VC2W5md-jH-f9bKy73-19" value="" style="edgeStyle=orthogonalEdgeStyle;rounded=0;orthogonalLoop=1;jettySize=auto;html=1;strokeWidth=3;endArrow=none;endFill=0;" parent="1" source="n9VC2W5md-jH-f9bKy73-20" edge="1">
          <mxGeometry relative="1" as="geometry">
            <mxPoint x="1297" y="96" as="targetPoint" />
          </mxGeometry>
        </mxCell>
        <mxCell id="n9VC2W5md-jH-f9bKy73-20" value="q" style="rounded=0;whiteSpace=wrap;html=1;strokeColor=none;fontSize=20;" parent="1" vertex="1">
          <mxGeometry x="1436" y="78.5" width="67" height="35" as="geometry" />
        </mxCell>
        <mxCell id="n9VC2W5md-jH-f9bKy73-21" value="" style="rounded=0;whiteSpace=wrap;html=1;strokeWidth=3;fontSize=20;container=0;fontStyle=1" parent="1" vertex="1">
          <mxGeometry x="725" y="483" width="173" height="192" as="geometry" />
        </mxCell>
        <mxCell id="n9VC2W5md-jH-f9bKy73-22" value="D" style="text;html=1;align=center;verticalAlign=middle;resizable=0;points=[];autosize=1;strokeColor=none;fillColor=none;strokeWidth=3;fontSize=20;container=0;fontStyle=1" parent="1" vertex="1">
          <mxGeometry x="730" y="499" width="40" height="40" as="geometry" />
        </mxCell>
        <mxCell id="n9VC2W5md-jH-f9bKy73-23" value="CLK" style="text;html=1;align=center;verticalAlign=middle;resizable=0;points=[];autosize=1;strokeColor=none;fillColor=none;strokeWidth=3;fontSize=20;container=0;fontStyle=1" parent="1" vertex="1">
          <mxGeometry x="739" y="615" width="60" height="40" as="geometry" />
        </mxCell>
        <mxCell id="n9VC2W5md-jH-f9bKy73-24" value="Q" style="text;html=1;align=center;verticalAlign=middle;resizable=0;points=[];autosize=1;strokeColor=none;fillColor=none;strokeWidth=3;fontSize=20;container=0;fontStyle=1" parent="1" vertex="1">
          <mxGeometry x="853" y="499" width="40" height="40" as="geometry" />
        </mxCell>
        <mxCell id="n9VC2W5md-jH-f9bKy73-25" value="" style="triangle;whiteSpace=wrap;html=1;strokeWidth=3;fillColor=#33001A;strokeColor=#33001A;fontColor=#ffffff;" parent="1" vertex="1">
          <mxGeometry x="725" y="624" width="19" height="22" as="geometry" />
        </mxCell>
        <mxCell id="n9VC2W5md-jH-f9bKy73-26" value="" style="ellipse;whiteSpace=wrap;html=1;aspect=fixed;strokeWidth=3;" parent="1" vertex="1">
          <mxGeometry x="713" y="629.5" width="11" height="11" as="geometry" />
        </mxCell>
        <mxCell id="n9VC2W5md-jH-f9bKy73-28" style="rounded=0;orthogonalLoop=1;jettySize=auto;html=1;exitX=1;exitY=0.5;exitDx=0;exitDy=0;endArrow=none;endFill=0;strokeWidth=3;entryX=0;entryY=0.5;entryDx=0;entryDy=0;" parent="1" target="n9VC2W5md-jH-f9bKy73-26" edge="1">
          <mxGeometry relative="1" as="geometry">
            <mxPoint x="711" y="635" as="targetPoint" />
            <mxPoint x="562" y="635.5" as="sourcePoint" />
          </mxGeometry>
        </mxCell>
        <mxCell id="n9VC2W5md-jH-f9bKy73-30" style="rounded=0;orthogonalLoop=1;jettySize=auto;html=1;exitX=1;exitY=0.5;exitDx=0;exitDy=0;endArrow=none;endFill=0;strokeWidth=3;entryX=0.005;entryY=0.17;entryDx=0;entryDy=0;entryPerimeter=0;" parent="1" source="n9VC2W5md-jH-f9bKy73-31" target="n9VC2W5md-jH-f9bKy73-21" edge="1">
          <mxGeometry relative="1" as="geometry">
            <mxPoint x="723" y="515.689655172414" as="targetPoint" />
          </mxGeometry>
        </mxCell>
        <mxCell id="n9VC2W5md-jH-f9bKy73-31" value="d" style="rounded=0;whiteSpace=wrap;html=1;strokeColor=none;fontSize=20;" parent="1" vertex="1">
          <mxGeometry x="493" y="498" width="67" height="35" as="geometry" />
        </mxCell>
        <mxCell id="n9VC2W5md-jH-f9bKy73-32" style="rounded=0;orthogonalLoop=1;jettySize=auto;html=1;endArrow=none;endFill=0;strokeWidth=3;" parent="1" edge="1">
          <mxGeometry relative="1" as="geometry">
            <mxPoint x="898" y="519" as="sourcePoint" />
            <mxPoint x="1125" y="519" as="targetPoint" />
          </mxGeometry>
        </mxCell>
        <mxCell id="n9VC2W5md-jH-f9bKy73-33" value="" style="edgeStyle=orthogonalEdgeStyle;rounded=0;orthogonalLoop=1;jettySize=auto;html=1;strokeWidth=3;endArrow=none;endFill=0;" parent="1" source="n9VC2W5md-jH-f9bKy73-34" edge="1">
          <mxGeometry relative="1" as="geometry">
            <mxPoint x="1299" y="519" as="targetPoint" />
          </mxGeometry>
        </mxCell>
        <mxCell id="n9VC2W5md-jH-f9bKy73-34" value="q" style="rounded=0;whiteSpace=wrap;html=1;strokeColor=none;fontSize=20;" parent="1" vertex="1">
          <mxGeometry x="1438" y="501.5" width="67" height="35" as="geometry" />
        </mxCell>
        <mxCell id="n9VC2W5md-jH-f9bKy73-35" value="" style="rounded=0;whiteSpace=wrap;html=1;strokeWidth=3;fontSize=20;container=0;fontStyle=1" parent="1" vertex="1">
          <mxGeometry x="1127" y="482" width="173" height="192" as="geometry" />
        </mxCell>
        <mxCell id="n9VC2W5md-jH-f9bKy73-36" value="D" style="text;html=1;align=center;verticalAlign=middle;resizable=0;points=[];autosize=1;strokeColor=none;fillColor=none;strokeWidth=3;fontSize=20;container=0;fontStyle=1" parent="1" vertex="1">
          <mxGeometry x="1136" y="500" width="33" height="37" as="geometry" />
        </mxCell>
        <mxCell id="n9VC2W5md-jH-f9bKy73-37" value="CLK" style="text;html=1;align=center;verticalAlign=middle;resizable=0;points=[];autosize=1;strokeColor=none;fillColor=none;strokeWidth=3;fontSize=20;container=0;fontStyle=1" parent="1" vertex="1">
          <mxGeometry x="1142" y="616" width="58" height="37" as="geometry" />
        </mxCell>
        <mxCell id="n9VC2W5md-jH-f9bKy73-38" value="Q" style="text;html=1;align=center;verticalAlign=middle;resizable=0;points=[];autosize=1;strokeColor=none;fillColor=none;strokeWidth=3;fontSize=20;container=0;fontStyle=1" parent="1" vertex="1">
          <mxGeometry x="1258" y="500" width="35" height="37" as="geometry" />
        </mxCell>
        <mxCell id="n9VC2W5md-jH-f9bKy73-39" value="" style="triangle;whiteSpace=wrap;html=1;strokeWidth=3;fillColor=#33001A;strokeColor=#33001A;fontColor=#ffffff;" parent="1" vertex="1">
          <mxGeometry x="1127" y="623" width="19" height="22" as="geometry" />
        </mxCell>
        <mxCell id="n9VC2W5md-jH-f9bKy73-40" value="" style="rounded=0;whiteSpace=wrap;html=1;strokeWidth=3;fontSize=20;container=0;fontStyle=1" parent="1" vertex="1">
          <mxGeometry x="1123" y="923" width="173" height="192" as="geometry" />
        </mxCell>
        <mxCell id="n9VC2W5md-jH-f9bKy73-41" value="D" style="text;html=1;align=center;verticalAlign=middle;resizable=0;points=[];autosize=1;strokeColor=none;fillColor=none;strokeWidth=3;fontSize=20;container=0;fontStyle=1" parent="1" vertex="1">
          <mxGeometry x="1128" y="939" width="40" height="40" as="geometry" />
        </mxCell>
        <mxCell id="n9VC2W5md-jH-f9bKy73-42" value="CLK" style="text;html=1;align=center;verticalAlign=middle;resizable=0;points=[];autosize=1;strokeColor=none;fillColor=none;strokeWidth=3;fontSize=20;container=0;fontStyle=1" parent="1" vertex="1">
          <mxGeometry x="1137" y="1055" width="60" height="40" as="geometry" />
        </mxCell>
        <mxCell id="n9VC2W5md-jH-f9bKy73-43" value="Q" style="text;html=1;align=center;verticalAlign=middle;resizable=0;points=[];autosize=1;strokeColor=none;fillColor=none;strokeWidth=3;fontSize=20;container=0;fontStyle=1" parent="1" vertex="1">
          <mxGeometry x="1251" y="939" width="40" height="40" as="geometry" />
        </mxCell>
        <mxCell id="n9VC2W5md-jH-f9bKy73-44" value="" style="triangle;whiteSpace=wrap;html=1;strokeWidth=3;fillColor=#33001A;strokeColor=#33001A;fontColor=#ffffff;" parent="1" vertex="1">
          <mxGeometry x="1123" y="1064" width="19" height="22" as="geometry" />
        </mxCell>
        <mxCell id="n9VC2W5md-jH-f9bKy73-46" value="" style="ellipse;whiteSpace=wrap;html=1;aspect=fixed;strokeWidth=3;" parent="1" vertex="1">
          <mxGeometry x="1111" y="1069.5" width="11" height="11" as="geometry" />
        </mxCell>
        <mxCell id="n9VC2W5md-jH-f9bKy73-47" style="rounded=0;orthogonalLoop=1;jettySize=auto;html=1;exitX=1;exitY=0.5;exitDx=0;exitDy=0;endArrow=none;endFill=0;strokeWidth=3;entryX=0;entryY=0.5;entryDx=0;entryDy=0;" parent="1" edge="1">
          <mxGeometry relative="1" as="geometry">
            <mxPoint x="711" y="1075" as="targetPoint" />
            <mxPoint x="560.0000000000005" y="1075.5" as="sourcePoint" />
          </mxGeometry>
        </mxCell>
        <mxCell id="n9VC2W5md-jH-f9bKy73-49" style="rounded=0;orthogonalLoop=1;jettySize=auto;html=1;exitX=1;exitY=0.5;exitDx=0;exitDy=0;endArrow=none;endFill=0;strokeWidth=3;entryX=0.005;entryY=0.17;entryDx=0;entryDy=0;entryPerimeter=0;" parent="1" source="n9VC2W5md-jH-f9bKy73-50" edge="1">
          <mxGeometry relative="1" as="geometry">
            <mxPoint x="723.8649999999998" y="955.6400000000003" as="targetPoint" />
          </mxGeometry>
        </mxCell>
        <mxCell id="n9VC2W5md-jH-f9bKy73-50" value="d" style="rounded=0;whiteSpace=wrap;html=1;strokeColor=none;fontSize=20;" parent="1" vertex="1">
          <mxGeometry x="491" y="938" width="67" height="35" as="geometry" />
        </mxCell>
        <mxCell id="n9VC2W5md-jH-f9bKy73-51" style="rounded=0;orthogonalLoop=1;jettySize=auto;html=1;endArrow=none;endFill=0;strokeWidth=3;" parent="1" edge="1">
          <mxGeometry relative="1" as="geometry">
            <mxPoint x="886" y="959" as="sourcePoint" />
            <mxPoint x="1123" y="959" as="targetPoint" />
          </mxGeometry>
        </mxCell>
        <mxCell id="n9VC2W5md-jH-f9bKy73-52" value="" style="edgeStyle=orthogonalEdgeStyle;rounded=0;orthogonalLoop=1;jettySize=auto;html=1;strokeWidth=3;endArrow=none;endFill=0;" parent="1" source="n9VC2W5md-jH-f9bKy73-53" edge="1">
          <mxGeometry relative="1" as="geometry">
            <mxPoint x="1297" y="959" as="targetPoint" />
          </mxGeometry>
        </mxCell>
        <mxCell id="n9VC2W5md-jH-f9bKy73-53" value="q" style="rounded=0;whiteSpace=wrap;html=1;strokeColor=none;fontSize=20;" parent="1" vertex="1">
          <mxGeometry x="1436" y="941.5" width="67" height="35" as="geometry" />
        </mxCell>
        <mxCell id="n9VC2W5md-jH-f9bKy73-54" value="" style="rounded=0;whiteSpace=wrap;html=1;strokeWidth=3;fontSize=20;container=0;fontStyle=1" parent="1" vertex="1">
          <mxGeometry x="712" y="922" width="173" height="192" as="geometry" />
        </mxCell>
        <mxCell id="n9VC2W5md-jH-f9bKy73-55" value="D" style="text;html=1;align=center;verticalAlign=middle;resizable=0;points=[];autosize=1;strokeColor=none;fillColor=none;strokeWidth=3;fontSize=20;container=0;fontStyle=1" parent="1" vertex="1">
          <mxGeometry x="721" y="940" width="33" height="37" as="geometry" />
        </mxCell>
        <mxCell id="n9VC2W5md-jH-f9bKy73-56" value="CLK" style="text;html=1;align=center;verticalAlign=middle;resizable=0;points=[];autosize=1;strokeColor=none;fillColor=none;strokeWidth=3;fontSize=20;container=0;fontStyle=1" parent="1" vertex="1">
          <mxGeometry x="727" y="1056" width="58" height="37" as="geometry" />
        </mxCell>
        <mxCell id="n9VC2W5md-jH-f9bKy73-57" value="Q" style="text;html=1;align=center;verticalAlign=middle;resizable=0;points=[];autosize=1;strokeColor=none;fillColor=none;strokeWidth=3;fontSize=20;container=0;fontStyle=1" parent="1" vertex="1">
          <mxGeometry x="843" y="940" width="35" height="37" as="geometry" />
        </mxCell>
        <mxCell id="n9VC2W5md-jH-f9bKy73-58" value="" style="triangle;whiteSpace=wrap;html=1;strokeWidth=3;fillColor=#33001A;strokeColor=#33001A;fontColor=#ffffff;" parent="1" vertex="1">
          <mxGeometry x="712" y="1063" width="19" height="22" as="geometry" />
        </mxCell>
        <mxCell id="n9VC2W5md-jH-f9bKy73-60" style="rounded=0;orthogonalLoop=1;jettySize=auto;html=1;exitX=1;exitY=0.5;exitDx=0;exitDy=0;endArrow=none;endFill=0;strokeWidth=3;entryX=0;entryY=0.5;entryDx=0;entryDy=0;" parent="1" edge="1">
          <mxGeometry relative="1" as="geometry">
            <mxPoint x="712" y="1486" as="targetPoint" />
            <mxPoint x="561.0000000000005" y="1486.5" as="sourcePoint" />
          </mxGeometry>
        </mxCell>
        <mxCell id="n9VC2W5md-jH-f9bKy73-62" style="rounded=0;orthogonalLoop=1;jettySize=auto;html=1;exitX=1;exitY=0.5;exitDx=0;exitDy=0;endArrow=none;endFill=0;strokeWidth=3;entryX=0.005;entryY=0.17;entryDx=0;entryDy=0;entryPerimeter=0;" parent="1" source="n9VC2W5md-jH-f9bKy73-63" edge="1">
          <mxGeometry relative="1" as="geometry">
            <mxPoint x="724.8649999999998" y="1366.6400000000003" as="targetPoint" />
          </mxGeometry>
        </mxCell>
        <mxCell id="n9VC2W5md-jH-f9bKy73-63" value="d" style="rounded=0;whiteSpace=wrap;html=1;strokeColor=none;fontSize=20;" parent="1" vertex="1">
          <mxGeometry x="492" y="1349" width="67" height="35" as="geometry" />
        </mxCell>
        <mxCell id="n9VC2W5md-jH-f9bKy73-64" style="rounded=0;orthogonalLoop=1;jettySize=auto;html=1;endArrow=none;endFill=0;strokeWidth=3;" parent="1" edge="1">
          <mxGeometry relative="1" as="geometry">
            <mxPoint x="887" y="1370" as="sourcePoint" />
            <mxPoint x="1124" y="1370" as="targetPoint" />
          </mxGeometry>
        </mxCell>
        <mxCell id="n9VC2W5md-jH-f9bKy73-65" value="" style="rounded=0;orthogonalLoop=1;jettySize=auto;html=1;strokeWidth=3;endArrow=none;endFill=0;" parent="1" source="n9VC2W5md-jH-f9bKy73-66" edge="1">
          <mxGeometry relative="1" as="geometry">
            <mxPoint x="1296" y="1369" as="targetPoint" />
          </mxGeometry>
        </mxCell>
        <mxCell id="n9VC2W5md-jH-f9bKy73-66" value="q" style="rounded=0;whiteSpace=wrap;html=1;strokeColor=none;fontSize=20;" parent="1" vertex="1">
          <mxGeometry x="1437" y="1352.5" width="67" height="35" as="geometry" />
        </mxCell>
        <mxCell id="n9VC2W5md-jH-f9bKy73-67" value="" style="rounded=0;whiteSpace=wrap;html=1;strokeWidth=3;fontSize=20;container=0;fontStyle=1" parent="1" vertex="1">
          <mxGeometry x="713" y="1333" width="173" height="192" as="geometry" />
        </mxCell>
        <mxCell id="n9VC2W5md-jH-f9bKy73-68" value="D" style="text;html=1;align=center;verticalAlign=middle;resizable=0;points=[];autosize=1;strokeColor=none;fillColor=none;strokeWidth=3;fontSize=20;container=0;fontStyle=1" parent="1" vertex="1">
          <mxGeometry x="722" y="1351" width="33" height="37" as="geometry" />
        </mxCell>
        <mxCell id="n9VC2W5md-jH-f9bKy73-69" value="CLK" style="text;html=1;align=center;verticalAlign=middle;resizable=0;points=[];autosize=1;strokeColor=none;fillColor=none;strokeWidth=3;fontSize=20;container=0;fontStyle=1" parent="1" vertex="1">
          <mxGeometry x="728" y="1467" width="58" height="37" as="geometry" />
        </mxCell>
        <mxCell id="n9VC2W5md-jH-f9bKy73-70" value="Q" style="text;html=1;align=center;verticalAlign=middle;resizable=0;points=[];autosize=1;strokeColor=none;fillColor=none;strokeWidth=3;fontSize=20;container=0;fontStyle=1" parent="1" vertex="1">
          <mxGeometry x="844" y="1351" width="35" height="37" as="geometry" />
        </mxCell>
        <mxCell id="n9VC2W5md-jH-f9bKy73-71" value="" style="triangle;whiteSpace=wrap;html=1;strokeWidth=3;fillColor=#33001A;strokeColor=#33001A;fontColor=#ffffff;" parent="1" vertex="1">
          <mxGeometry x="713" y="1474" width="19" height="22" as="geometry" />
        </mxCell>
        <mxCell id="n9VC2W5md-jH-f9bKy73-72" value="" style="rounded=0;whiteSpace=wrap;html=1;strokeWidth=3;fontSize=20;container=0;fontStyle=1" parent="1" vertex="1">
          <mxGeometry x="1123" y="1336" width="173" height="192" as="geometry" />
        </mxCell>
        <mxCell id="n9VC2W5md-jH-f9bKy73-73" value="D" style="text;html=1;align=center;verticalAlign=middle;resizable=0;points=[];autosize=1;strokeColor=none;fillColor=none;strokeWidth=3;fontSize=20;container=0;fontStyle=1" parent="1" vertex="1">
          <mxGeometry x="1132" y="1354" width="33" height="37" as="geometry" />
        </mxCell>
        <mxCell id="n9VC2W5md-jH-f9bKy73-74" value="CLK" style="text;html=1;align=center;verticalAlign=middle;resizable=0;points=[];autosize=1;strokeColor=none;fillColor=none;strokeWidth=3;fontSize=20;container=0;fontStyle=1" parent="1" vertex="1">
          <mxGeometry x="1138" y="1468" width="58" height="37" as="geometry" />
        </mxCell>
        <mxCell id="n9VC2W5md-jH-f9bKy73-75" value="Q" style="text;html=1;align=center;verticalAlign=middle;resizable=0;points=[];autosize=1;strokeColor=none;fillColor=none;strokeWidth=3;fontSize=20;container=0;fontStyle=1" parent="1" vertex="1">
          <mxGeometry x="1254" y="1354" width="35" height="37" as="geometry" />
        </mxCell>
        <mxCell id="n9VC2W5md-jH-f9bKy73-76" value="" style="triangle;whiteSpace=wrap;html=1;strokeWidth=3;fillColor=#33001A;strokeColor=#33001A;fontColor=#ffffff;" parent="1" vertex="1">
          <mxGeometry x="1123" y="1475" width="19" height="22" as="geometry" />
        </mxCell>
        <mxCell id="n9VC2W5md-jH-f9bKy73-77" value="clk 1" style="rounded=0;whiteSpace=wrap;html=1;strokeColor=none;fontSize=20;" parent="1" vertex="1">
          <mxGeometry x="493" y="195" width="67" height="35" as="geometry" />
        </mxCell>
        <mxCell id="n9VC2W5md-jH-f9bKy73-85" style="edgeStyle=orthogonalEdgeStyle;rounded=0;orthogonalLoop=1;jettySize=auto;html=1;entryX=0;entryY=0.5;entryDx=0;entryDy=0;endArrow=none;endFill=0;strokeWidth=3;" parent="1" source="n9VC2W5md-jH-f9bKy73-78" target="n9VC2W5md-jH-f9bKy73-13" edge="1">
          <mxGeometry relative="1" as="geometry">
            <Array as="points">
              <mxPoint x="1035" y="332" />
              <mxPoint x="1035" y="212" />
            </Array>
          </mxGeometry>
        </mxCell>
        <mxCell id="n9VC2W5md-jH-f9bKy73-78" value="clk 2" style="rounded=0;whiteSpace=wrap;html=1;strokeColor=none;fontSize=20;" parent="1" vertex="1">
          <mxGeometry x="491" y="315" width="67" height="35" as="geometry" />
        </mxCell>
        <mxCell id="n9VC2W5md-jH-f9bKy73-79" value="clk 1" style="rounded=0;whiteSpace=wrap;html=1;strokeColor=none;fontSize=20;" parent="1" vertex="1">
          <mxGeometry x="494" y="618" width="67" height="35" as="geometry" />
        </mxCell>
        <mxCell id="n9VC2W5md-jH-f9bKy73-86" style="edgeStyle=orthogonalEdgeStyle;rounded=0;orthogonalLoop=1;jettySize=auto;html=1;entryX=0;entryY=0.5;entryDx=0;entryDy=0;endArrow=none;endFill=0;strokeWidth=3;" parent="1" source="n9VC2W5md-jH-f9bKy73-80" target="n9VC2W5md-jH-f9bKy73-39" edge="1">
          <mxGeometry relative="1" as="geometry">
            <Array as="points">
              <mxPoint x="1034" y="756" />
              <mxPoint x="1034" y="634" />
            </Array>
          </mxGeometry>
        </mxCell>
        <mxCell id="n9VC2W5md-jH-f9bKy73-80" value="clk 2" style="rounded=0;whiteSpace=wrap;html=1;strokeColor=none;fontSize=20;" parent="1" vertex="1">
          <mxGeometry x="492" y="738" width="67" height="35" as="geometry" />
        </mxCell>
        <mxCell id="n9VC2W5md-jH-f9bKy73-81" value="clk 1" style="rounded=0;whiteSpace=wrap;html=1;strokeColor=none;fontSize=20;" parent="1" vertex="1">
          <mxGeometry x="491" y="1056" width="67" height="35" as="geometry" />
        </mxCell>
        <mxCell id="n9VC2W5md-jH-f9bKy73-87" style="edgeStyle=orthogonalEdgeStyle;rounded=0;orthogonalLoop=1;jettySize=auto;html=1;entryX=0;entryY=0.5;entryDx=0;entryDy=0;endArrow=none;endFill=0;strokeWidth=3;" parent="1" source="n9VC2W5md-jH-f9bKy73-82" target="n9VC2W5md-jH-f9bKy73-46" edge="1">
          <mxGeometry relative="1" as="geometry">
            <Array as="points">
              <mxPoint x="1034" y="1194" />
              <mxPoint x="1034" y="1075" />
            </Array>
          </mxGeometry>
        </mxCell>
        <mxCell id="n9VC2W5md-jH-f9bKy73-82" value="clk 2" style="rounded=0;whiteSpace=wrap;html=1;strokeColor=none;fontSize=20;" parent="1" vertex="1">
          <mxGeometry x="489" y="1176" width="67" height="35" as="geometry" />
        </mxCell>
        <mxCell id="n9VC2W5md-jH-f9bKy73-83" value="clk 1" style="rounded=0;whiteSpace=wrap;html=1;strokeColor=none;fontSize=20;" parent="1" vertex="1">
          <mxGeometry x="495" y="1469" width="67" height="35" as="geometry" />
        </mxCell>
        <mxCell id="n9VC2W5md-jH-f9bKy73-88" style="edgeStyle=orthogonalEdgeStyle;rounded=0;orthogonalLoop=1;jettySize=auto;html=1;entryX=0;entryY=0.5;entryDx=0;entryDy=0;endArrow=none;endFill=0;strokeWidth=3;" parent="1" source="n9VC2W5md-jH-f9bKy73-84" target="n9VC2W5md-jH-f9bKy73-76" edge="1">
          <mxGeometry relative="1" as="geometry">
            <Array as="points">
              <mxPoint x="1036" y="1606" />
              <mxPoint x="1036" y="1486" />
            </Array>
          </mxGeometry>
        </mxCell>
        <mxCell id="n9VC2W5md-jH-f9bKy73-84" value="clk 2" style="rounded=0;whiteSpace=wrap;html=1;strokeColor=none;fontSize=20;" parent="1" vertex="1">
          <mxGeometry x="493" y="1589" width="67" height="35" as="geometry" />
        </mxCell>
        <mxCell id="n9VC2W5md-jH-f9bKy73-90" value="&lt;font style=&quot;font-size: 40px;&quot;&gt;Different Clock&lt;/font&gt;" style="text;html=1;align=center;verticalAlign=middle;resizable=0;points=[];autosize=1;strokeColor=#b85450;fillColor=#f8cecc;" parent="1" vertex="1">
          <mxGeometry x="848" y="-106" width="290" height="60" as="geometry" />
        </mxCell>
      </root>
    </mxGraphModel>
  </diagram>
</mxfile>
